<svg width="45" height="45" viewBox="0 0 45 45" fill="none" xmlns="http://www.w3.org/2000/svg">
<path d="M33 22.5C33 28.299 28.299 33 22.5 33C16.701 33 12 28.299 12 22.5C12 16.701 16.701 12 22.5 12C28.299 12 33 16.701 33 22.5Z" fill="white"/>
<path fill-rule="evenodd" clip-rule="evenodd" d="M45 22.5C45 34.9264 34.9264 45 22.5 45C10.0736 45 0 34.9264 0 22.5C0 10.0736 10.0736 0 22.5 0C34.9264 0 45 10.0736 45 22.5ZM22.5 33C28.299 33 33 28.299 33 22.5C33 16.701 28.299 12 22.5 12C16.701 12 12 16.701 12 22.5C12 28.299 16.701 33 22.5 33Z" fill="white" fill-opacity="0.5"/>
<path fill-rule="evenodd" clip-rule="evenodd" d="M39.5833 3.06537C40.6518 3.93982 40.8092 5.5149 39.9347 6.5834L22.5798 27.7898L12.1775 16.7114C11.2324 15.7048 11.2822 14.1227 12.2887 13.1776C13.2953 12.2325 14.8774 12.2823 15.8225 13.2888L22.3217 20.2104L36.0653 3.41675C36.9398 2.34824 38.5148 2.19093 39.5833 3.06537Z" fill="#1FA099"/>
</svg>
